HIERARCHY
ROOT Hips
{
	OFFSET 0.00000 0.00000 0.00000
	CHANNELS 6 Xposition Yposition Zposition Yrotation Zrotation Xrotation 
	JOINT Lumbar
	{
		OFFSET 0 0 0
		CHANNELS 3 Zrotation Xrotation Yrotation
		JOINT Neck
		{
			OFFSET 0.00 0.2701 0.00
			CHANNELS 3 Zrotation Xrotation Yrotation
			End Site
			{
				OFFSET 0.00 0.1379 0.00
			}
		}
		JOINT RightShoulder
		{
			OFFSET 0.0119 0.2289 0.1181
			CHANNELS 3 Zrotation Xrotation Yrotation
			JOINT RightElbow
			{
				OFFSET 0.00 -0.1475 0.00
				CHANNELS 2 Zrotation Yrotation
				JOINT RightWrist
				{
					OFFSET 0.00 -0.1605 0.00
					CHANNELS 2 Zrotation Xrotation
					End Site
					{
						OFFSET 0.0040 -0.1068 0.0006
					}
				}
			}
		}
		JOINT LeftShoulder
		{
			OFFSET 0.0119 0.2289 -0.1181
			CHANNELS 3 Zrotation Xrotation Yrotation
			JOINT LeftElbow
			{
				OFFSET 0.00 -0.1475 0.00
				CHANNELS 2 Zrotation Yrotation
				JOINT LeftWrist
				{
					OFFSET 0.00 -0.1605 0.00
					CHANNELS 2 Zrotation Xrotation
					End Site
					{
						OFFSET 0.0040 -0.1068 -0.0006
					}
				}
			}
		}
	}
	JOINT RightHip
	{
		OFFSET 0.0316 -0.0424 0.0458
		CHANNELS 3 Zrotation Xrotation Yrotation
		JOINT RightKnee
		{
			OFFSET 0.00 -0.2438 0.00
			CHANNELS 1 Zrotation
			JOINT RightAnkle
			{
				OFFSET 0.00 -0.2449 0.00
				CHANNELS 3 Zrotation Xrotation Yrotation
				End Site
				{
					OFFSET 0.1237 -0.0542 0.0051
				}
			}
		}
	}
	JOINT LeftHip
	{
		OFFSET 0.0316 -0.0424 -0.0458
		CHANNELS 3 Zrotation Xrotation Yrotation
		JOINT LeftKnee
		{
			OFFSET 0.00 -0.2438 0.00
			CHANNELS 1 Zrotation
			JOINT LeftAnkle
			{
				OFFSET 0.00 -0.2449 0.00
				CHANNELS 3 Zrotation Xrotation Yrotation
				End Site
				{
					OFFSET 0.1237 -0.0542 -0.0051
				}
			}
		}
	}
}
MOTION
Frames: 25
Frame Time: 0.02
-0.00103 0.00146 -0.00567 -116.81654 -25.48201 1.10274 39.4979 3.03113 5.5093 -20.21695 5.86077 -0.64881 0.99575 -19.22277 5.22157 37.90353 91.82525 6.33363 0.4365 -44.0882 12.43232 -0.99935 33.341 -110.41087 19.9132 -1.24882 29.68277 -0.18256 -8.75043 -20.93708 -8.03295 -4.86698 -3.29257 42.12484 10.68167 -0.68702 -32.0724 -9.20702 1.87898 1.68396
0.00065 0.00136 -0.0065 -116.09444 -25.75571 1.02935 39.78844 2.97058 5.05874 -20.0684 5.7902 -0.64915 -0.28244 -18.66257 4.90458 37.01812 91.91064 6.29792 0.49906 -43.30402 12.76495 -0.8374 33.92669 -110.31288 19.77789 -1.25616 30.18548 -0.2711 -8.87546 -21.09296 -8.05208 -4.89997 -3.31418 41.83901 11.06567 -0.51709 -32.15517 -9.27923 2.09332 1.80816
0.00232 0.00127 -0.00733 -115.37371 -26.02867 0.9559 40.07821 2.9102 4.6085 -19.92015 5.71929 -0.64949 -1.55853 -18.10388 4.58863 36.13552 91.99579 6.26221 0.56146 -42.5206 13.09705 -0.67647 34.51142 -110.21461 19.64251 -1.26347 30.68683 -0.35943 -9.00024 -21.24841 -8.07126 -4.93292 -3.33576 41.55386 11.44821 -0.34734 -32.23755 -9.3517 2.30726 1.93216
0.00399 0.00117 -0.00815 -114.65369 -26.30156 0.8827 40.36789 2.84984 4.15916 -19.77203 5.64885 -0.64983 -2.83308 -17.54535 4.27259 35.25283 92.08093 6.22659 0.62383 -41.73859 13.42873 -0.51506 35.09542 -110.11683 19.50755 -1.27079 31.18803 -0.4477 -9.12493 -21.40384 -8.09034 -4.96582 -3.35731 41.26888 11.831 -0.1779 -32.32008 -9.42378 2.52098 2.05601
0.00566 0.00108 -0.00898 -113.93263 -26.57512 0.80965 40.65824 2.78934 3.70991 -19.62366 5.57895 -0.65016 -4.10904 -16.98546 3.95562 34.36736 92.16626 6.19103 0.68636 -40.95638 13.76078 -0.35255 35.68014 -110.01951 19.37283 -1.27816 31.69047 -0.53614 -9.24978 -21.55964 -8.10935 -4.99874 -3.37887 40.98326 12.21533 -0.00835 -32.40294 -9.49541 2.73502 2.17998
0.00733 0.00098 -0.0098 -113.21264 -26.8468 0.73536 40.94676 2.72923 3.25763 -19.47568 5.50589 -0.65051 -5.38533 -16.42934 3.64189 33.49088 92.25102 6.15499 0.74849 -40.17044 14.09296 -0.19505 36.26488 -109.91925 19.23606 -1.28532 32.18948 -0.62425 -9.37439 -21.71434 -8.12889 -5.03178 -3.4005 40.69913 12.59408 0.16184 -32.48428 -9.56962 2.94871 2.30401
0.00899 0.00089 -0.01064 -112.49132 -27.12202 0.66369 41.23872 2.66837 2.81193 -19.32709 5.43931 -0.65084 -6.6595 -15.86613 3.32171 32.59716 92.33691 6.11998 0.81134 -39.39305 14.42447 -0.02733 36.84876 -109.82508 19.1036 -1.29291 32.69494 -0.71293 -9.49943 -21.87115 -8.14728 -5.06452 -3.42196 40.41236 12.98368 0.33042 -32.5688 -9.63861 3.16287 2.42781
0.01067 0.00079 -0.01146 -111.77116 -27.39387 0.5895 41.5274 2.60824 2.36017 -19.17904 5.3667 -0.65118 -7.9357 -15.30966 3.00797 31.71955 92.4216 6.08397 0.87353 -38.60747 14.75668 0.13043 37.43375 -109.72518 18.96709 -1.30009 33.19427 -0.80108 -9.62391 -22.02589 -8.16684 -5.09755 -3.44359 40.12797 13.36318 0.50072 -32.65003 -9.71232 3.37658 2.55179
0.01236 0.0007 -0.01226 -111.05224 -27.66213 0.51259 41.81264 2.54881 1.90058 -19.03163 5.28681 -0.65153 -9.21493 -14.76035 2.70003 30.86045 92.50551 6.04686 0.93494 -37.81243 15.08963 0.27812 38.01922 -109.61859 18.82579 -1.3068 33.68705 -0.88865 -9.74844 -22.17867 -8.18744 -5.13091 -3.46541 39.84655 13.73085 0.67231 -32.72867 -9.79226 3.58996 2.6762
0.01395 0.0006 -0.01319 -110.32559 -27.95268 0.4524 42.1194 2.48476 1.48476 -18.88047 5.24907 -0.65185 -10.47848 -14.1666 2.35246 29.89126 92.59598 6.01646 1.00092 -37.07342 15.41799 0.49004 38.59934 -109.5514 18.71253 -1.31633 34.22038 -0.97974 -9.87491 -22.34445 -8.2009 -5.16231 -3.48607 39.5482 14.16815 0.83403 -32.82652 -9.83779 3.80589 2.79876
0.01576 0.00052 -0.01384 -109.6158 -28.19514 0.35629 42.3796 2.43088 0.97758 -18.73731 5.12231 -0.65222 -11.77368 -13.66876 2.09251 29.1567 92.67127 5.97169 1.05721 -36.21543 15.75617 0.56248 39.19224 -109.40059 18.53989 -1.31983 34.66627 -1.06327 -9.99585 -22.4817 -8.23016 -5.19786 -3.50923 39.28549 14.45754 1.0181 -32.88107 -9.95496 4.01601 2.92483
0.01808 0.00051 -0.01375 -108.9483 -28.31355 0.16585 42.52076 2.40164 0.21002 -18.61552 4.74979 -0.65277 -13.16848 -13.4188 2.04245 29.05247 92.71539 5.88862 1.08705 -35.03368 16.12051 0.28071 39.80929 -109.02196 18.20451 -1.30712 34.88616 -1.12741 -10.1139 -22.54915 -8.2969 -5.24461 -3.53865 39.12223 14.34526 1.25133 -32.83901 -10.27823 4.21352 3.0637
0.02063 0.00053 -0.01337 -108.29903 -28.38251 -0.06141 42.61382 2.38319 -0.64652 -18.50185 4.28853 -0.65339 -14.59206 -13.26796 2.08597 29.18617 92.74224 5.79085 1.10713 -33.73229 16.49469 -0.14642 40.44159 -108.55916 17.8097 -1.28829 35.01604 -1.18397 -10.22464 -22.58648 -8.38043 -5.29546 -3.57063 38.99462 14.08382 1.50893 -32.74984 -10.67134 4.40452 3.20546
0.02312 0.00053 -0.01311 -107.64329 -28.46855 -0.27467 42.72283 2.36197 -1.45725 -18.38488 3.86839 -0.65397 -15.99503 -13.0818 2.10666 29.22005 92.77024 5.69912 1.13158 -32.48333 16.86508 -0.52571 41.07353 -108.13361 17.44166 -1.27201 35.17755 -1.24274 -10.32998 -22.63192 -8.46034 -5.34464 -3.60189 38.8494 13.8877 1.76372 -32.66706 -11.02674 4.59642 3.34391
0.02543 0.00054 -0.01293 -106.97759 -28.57602 -0.47668 42.85555 2.33187 -2.29484 -18.26638 3.44321 -0.65455 -17.43259 -12.85489 2.04461 29.22008 92.82685 5.61026 1.1563 -31.24075 17.23328 -0.82843 41.67613 -107.71162 17.07357 -1.25663 35.37655 -1.30559 -10.46991 -22.70041 -8.52406 -5.39334 -3.63154 38.70949 13.70107 1.985 -32.64551 -11.40893 4.7973 3.49099
0.02816 0.00054 -0.0125 -106.33989 -28.62869 -0.71056 42.92889 2.32269 -3.09256 -18.15288 3.0094 -0.65515 -18.80147 -12.73619 2.1768 29.34605 92.81934 5.51168 1.17815 -29.9585 17.60754 -1.32503 42.34551 -107.26289 16.69268 -1.23798 35.47799 -1.35956 -10.53882 -22.71429 -8.6246 -5.44363 -3.66485 38.56785 13.46008 2.28019 -32.48785 -11.75006 4.97756 3.62052
0.03196 0.00053 -0.0115 -105.75019 -28.52865 -1.02568 42.8379 2.36984 -3.80081 -18.05208 2.55734 -0.65581 -20.00194 -12.89375 2.82511 29.76981 92.64315 5.39221 1.19445 -28.58099 18.0026 -2.32026 43.17723 -106.75569 16.2806 -1.21127 35.31596 -1.37879 -10.38861 -22.58008 -8.83028 -5.50059 -3.71001 38.40473 13.09857 2.78597 -31.94407 -11.97626 5.10569 3.70324
0.03618 0.0005 -0.01026 -105.19298 -28.37741 -1.37113 42.69084 2.43743 -4.45792 -17.95596 2.10269 -0.65647 -21.1262 -13.15686 3.66549 30.31104 92.40266 5.26316 1.20817 -27.1715 18.40177 -3.5049 44.07852 -106.2254 15.85945 -1.18155 35.06156 -1.39161 -10.17106 -22.39267 -9.0711 -5.55841 -3.75834 38.23992 12.68831 3.36183 -31.26914 -12.15609 5.21272 3.76779
0.04022 0.00048 -0.00912 -104.63673 -28.25881 -1.70124 42.57774 2.49493 -5.11064 -17.85693 1.65981 -0.65712 -22.26782 -13.36998 4.41573 30.79226 92.18841 5.13677 1.22318 -25.78529 18.79537 -4.60464 44.96061 -105.70922 15.4495 -1.15355 34.86043 -1.41528 -10.00154 -22.2329 -9.29073 -5.61366 -3.80365 38.08132 12.3056 3.89883 -30.66846 -12.34655 5.32726 3.83905
0.04422 0.00047 -0.008 -104.01336 -28.10007 -2.03932 42.42821 2.55629 -5.88315 -17.76099 1.16909 -0.65782 -23.48665 -13.59336 5.17991 31.30744 91.98451 5.01647 1.23755 -24.35401 19.20671 -5.708 45.79292 -105.17517 15.00835 -1.12387 34.60977 -1.40518 -9.76122 -22.0581 -9.5326 -5.6782 -3.85567 37.90175 11.89702 4.47089 -30.00386 -12.58235 5.45021 3.91677
0.0484 0.00043 -0.00679 -103.53899 -28.01196 -2.36737 42.34054 2.61419 -6.3928 -17.66025 0.77857 -0.65841 -24.52207 -13.82131 5.96118 31.77961 91.74605 4.88208 1.25253 -23.01555 19.57973 -6.84248 46.74262 -104.67354 14.62986 -1.09702 34.43988 -1.46401 -9.64865 -21.90154 -9.73676 -5.72363 -3.8945 37.76402 11.53005 4.98046 -29.44241 -12.71331 5.5509 3.97689
0.05292 0.00028 -0.00542 -103.45382 -28.14404 -2.66126 42.44884 2.6586 -6.18861 -17.53955 0.66619 -0.65864 -25.10286 -14.01759 6.72816 32.07725 91.41 4.70537 1.27203 -21.8991 19.8646 -8.05385 48.01909 -104.27113 14.4352 -1.07923 34.52995 -1.71509 -9.93919 -21.81557 -9.82379 -5.71511 -3.89535 37.75016 11.31379 5.35199 -29.19363 -12.55219 5.59359 3.9911
0.05761 9e-05 -0.00397 -103.52021 -28.34671 -2.94357 42.61921 2.69857 -5.7211 -17.41481 0.6552 -0.65876 -25.49404 -14.21813 7.50852 32.33083 91.04451 4.51592 1.29187 -20.88561 20.10713 -9.28228 49.40571 -103.90198 14.30274 -1.06436 34.70219 -2.03595 -10.35505 -21.74863 -9.87229 -5.68745 -3.88292 37.77664 11.13775 5.65006 -29.05431 -12.28916 5.61489 3.98849
0.06225 -8e-05 -0.00256 -103.52633 -28.50925 -3.23043 42.75422 2.73983 -5.37429 -17.29555 0.59753 -0.65893 -25.95182 -14.42788 8.29101 32.62185 90.70465 4.33621 1.31016 -19.85325 20.35685 -10.47775 50.73123 -103.51514 14.13634 -1.04784 34.82796 -2.32444 -10.69042 -21.6683 -9.9414 -5.66923 -3.87712 37.77948 10.92797 5.94569 -28.86779 -12.08191 5.6472 3.99477
0.06678 -0.00025 -0.00116 -103.49666 -28.70462 -3.52163 42.9184 2.78487 -5.02222 -17.16121 0.54164 -0.65909 -26.49503 -14.59286 9.04319 32.84597 90.31201 4.13963 1.33426 -18.70195 20.65797 -11.78644 52.11327 -103.13757 13.99305 -1.0325 34.98929 -2.61464 -11.11983 -21.60588 -9.99912 -5.64808 -3.86904 37.80533 10.78022 6.38836 -28.66556 -11.83421 5.67359 3.99536
